<svg width="214" height="203" viewBox="0 0 214 203" fill="none" xmlns="http://www.w3.org/2000/svg">
<path d="M127.935 191.36C129.237 190.15 130.261 188.008 130.261 186.704C130.261 183.631 126.353 179.72 123.283 179.72C120.212 179.72 116.304 183.631 116.304 186.704C116.304 188.008 117.328 190.15 118.63 191.36C119.84 192.664 121.98 193.688 123.283 193.688C124.585 193.688 126.725 192.664 127.935 191.36Z" fill="#5EEAD4"/>
<path d="M188.32 184.376C197.624 180.745 204.696 170.501 204.696 160.631C204.696 147.222 192.507 135.023 179.109 135.023C169.153 135.023 158.918 142.1 155.383 151.598C147.567 172.084 167.943 192.291 188.32 184.376Z" fill="#5EEAD4"/>
<path d="M101.231 164.728C117.235 162.028 131.005 154.764 143.287 142.473C158.639 127.108 166.548 108.484 166.548 87.5321C166.548 66.5803 158.639 47.9564 143.287 32.5918C133.517 22.8142 125.237 17.5064 113.513 13.5954C91.7409 6.33213 69.5965 8.47387 49.313 19.8344C39.8226 25.1422 26.0522 38.9239 20.7487 48.422C6.88521 73.2849 6.88521 101.779 20.7487 126.642C26.0522 136.14 39.8226 149.922 49.313 155.23C65.2235 164.169 84.0182 167.615 101.231 164.728Z" fill="#99F6E4"/>
</svg>
