<svg width="1em" height="1em" viewBox="0 0 450 450" fill="none" xmlns="http://www.w3.org/2000/svg">
<path d="M64.3199 206.712C64.3542 341.468 64.3656 349.094 64.5482 350.397C65.2788 355.393 66.4202 359.177 68.4519 363.316C70.4723 367.443 72.9264 370.907 76.0882 374.074C81.9437 379.939 89.7283 383.963 97.7869 385.312C101.029 385.85 100.298 385.838 123.869 385.838C147.268 385.838 147.234 385.838 152.519 385.312C176.9 382.912 199.786 372.817 218.323 356.296C219.144 355.576 220.994 353.804 222.432 352.375L225.068 349.768L226.37 351.095C238.355 363.19 252.623 372.462 268.283 378.339C279.298 382.466 290.165 384.764 302.618 385.575C305.905 385.793 347.294 385.793 349.245 385.575C357.703 384.638 364.952 381.597 371.298 376.326C372.668 375.195 375.681 372.131 376.731 370.804C378.706 368.324 380.11 366.117 381.48 363.373C383.511 359.28 384.71 355.359 385.452 350.397C385.646 349.082 385.657 342.566 385.68 206.712L385.714 64.4098H353.64H321.566V192.924V321.427L313.324 321.381C306.544 321.347 304.798 321.301 303.531 321.153C294.799 320.078 287.551 317.46 280.588 312.864C277.415 310.783 275.257 309.011 272.415 306.164C269.676 303.421 267.895 301.26 265.886 298.242C260.864 290.719 257.942 282.099 257.303 272.941C257.234 271.901 257.189 261.817 257.189 245.983V220.694H225.08H192.96L192.891 222.775C192.846 223.907 192.811 235.431 192.811 248.361C192.811 263.338 192.766 272.427 192.697 273.41C191.579 288.009 184.65 301.134 173.224 310.28C166.456 315.699 158.226 319.392 149.722 320.832C146.172 321.438 146.001 321.45 137.029 321.495L128.549 321.541V192.981V64.4098H96.4171H64.2857L64.3199 206.712Z" fill="#14B8A6"/>
<path d="M192.948 110.278L192.982 156.157L225.091 156.191L257.188 156.214V110.312V64.4098H225.057H192.925L192.948 110.278Z" fill="#14B8A6"/>
</svg>
