<svg width="1em" viewBox="0 0 1040 391" fill="none" xmlns="http://www.w3.org/2000/svg">
<path d="M42.7624 143.317C42.7532 202.908 42.7162 252.574 42.67 254.986C42.6238 257.371 42.5499 260.513 42.4944 261.964C42.439 263.415 42.3558 267.361 42.2911 270.744C42.2357 274.496 42.1525 276.954 42.097 277.065C41.9677 277.315 41.9677 291.732 42.097 292.231C42.1525 292.434 42.2449 294.181 42.3004 296.113C42.3558 298.044 42.4575 300.207 42.5314 300.918C42.6053 301.63 42.6885 302.748 42.7162 303.414C42.7532 304.07 42.8364 305.031 42.9011 305.539C42.975 306.048 43.0766 306.999 43.1321 307.656C43.1783 308.312 43.2615 309.005 43.3077 309.181C43.3631 309.365 43.4463 309.966 43.5018 310.53C43.5572 311.084 43.6589 311.796 43.7328 312.101C43.8067 312.406 43.8714 312.803 43.8714 312.979C43.8714 313.155 43.9361 313.589 44.0193 313.949C44.0932 314.301 44.2041 314.883 44.2503 315.243C44.2965 315.594 44.3982 316.075 44.4721 316.306C44.5461 316.537 44.6292 316.953 44.6662 317.23C44.7032 317.507 44.7771 317.868 44.851 318.034C44.9157 318.201 44.9989 318.533 45.0266 318.774C45.0636 319.014 45.1653 319.467 45.2577 319.772C45.3501 320.077 45.4702 320.511 45.5349 320.742C45.8399 321.907 45.9231 322.193 46.0062 322.359C46.0525 322.461 46.1449 322.748 46.2188 323.006C46.2927 323.256 46.3944 323.616 46.4591 323.792C46.5238 323.968 46.6809 324.402 46.801 324.762C46.9304 325.114 47.1152 325.576 47.2077 325.788C47.3001 326.001 47.3832 326.223 47.3832 326.287C47.3832 326.343 47.4479 326.509 47.5219 326.638C47.5958 326.777 47.7806 327.202 47.947 327.581C48.2797 328.367 48.9543 329.762 49.2778 330.307C49.3979 330.511 49.5827 330.844 49.6844 331.047C50.2574 332.119 51.6344 334.078 52.6879 335.298C53.1593 335.853 54.527 337.239 55.2017 337.849C55.636 338.246 57.4104 339.679 57.7339 339.901C57.8632 339.984 58.1775 340.196 58.427 340.381C58.8891 340.705 59.4343 341.074 60.4139 341.712C60.913 342.035 61.218 342.22 61.754 342.507C61.9111 342.59 62.2438 342.775 62.4933 342.923C63.0386 343.228 65.1826 344.3 65.7741 344.568C66.0051 344.669 66.4302 344.863 66.7167 344.993C67.0032 345.122 67.2712 345.233 67.3174 345.233C67.3544 345.242 67.5577 345.316 67.761 345.418C67.9643 345.52 68.1861 345.594 68.2416 345.603C68.3063 345.603 68.5373 345.686 68.7499 345.778C69.3598 346.046 70.0807 346.305 70.9956 346.573C71.4577 346.703 72.0953 346.897 72.428 346.998C72.7607 347.091 73.1304 347.174 73.2598 347.174C73.3892 347.174 73.6017 347.229 73.7311 347.303C73.8605 347.368 74.378 347.479 74.8771 347.544C75.3761 347.599 75.8844 347.691 76.0045 347.738C76.1154 347.775 76.6792 347.858 77.2522 347.913C77.8251 347.978 78.4721 348.061 78.6846 348.107C78.8879 348.154 79.6642 348.227 80.3943 348.283C81.1152 348.338 82.3443 348.44 83.1021 348.514C86.309 348.828 95.8648 349.059 100.273 348.939C102.158 348.884 105.291 348.8 107.223 348.745C109.154 348.69 111.649 348.588 112.768 348.514C113.886 348.431 115.679 348.329 116.742 348.283C117.814 348.237 119.015 348.154 119.422 348.107C119.828 348.052 120.956 347.969 121.917 347.913C122.887 347.867 123.922 347.775 124.227 347.728C124.532 347.682 125.549 347.59 126.492 347.544C127.434 347.488 128.294 347.405 128.414 347.349C128.525 347.303 129.218 347.22 129.939 347.174C130.659 347.118 131.584 347.017 131.99 346.943C132.397 346.878 133.081 346.786 133.515 346.758C133.95 346.721 134.569 346.647 134.901 346.573C135.234 346.508 135.835 346.425 136.241 346.388C136.648 346.361 137.249 346.268 137.581 346.194C137.914 346.13 138.496 346.028 138.875 345.982C140.853 345.723 144.032 345.002 146.084 344.337C146.315 344.263 146.731 344.152 147.008 344.078C147.285 344.004 147.729 343.884 147.978 343.801C148.237 343.717 148.736 343.57 149.087 343.459C149.448 343.357 149.928 343.191 150.169 343.098C150.409 342.997 150.668 342.923 150.751 342.923C150.834 342.923 151.093 342.849 151.333 342.747C151.767 342.581 153.431 342.008 154.216 341.767C154.447 341.693 154.928 341.527 155.279 341.398C155.917 341.157 156.434 340.963 157.386 340.621C157.645 340.52 158.098 340.353 158.375 340.242C158.652 340.132 159.05 339.974 159.253 339.901C159.456 339.827 159.789 339.688 160.002 339.586C160.205 339.494 160.418 339.411 160.473 339.411C160.528 339.411 160.695 339.346 160.843 339.272C160.981 339.198 161.369 339.032 161.702 338.893C162.035 338.764 162.488 338.57 162.719 338.468C162.95 338.366 163.301 338.209 163.504 338.117C165.426 337.294 168.661 335.742 170.759 334.642C171.591 334.198 175.5 331.989 175.916 331.721C176.054 331.629 176.285 331.49 176.433 331.407C176.821 331.185 179.659 329.124 180.971 328.099C181.414 327.747 181.84 327.433 182.034 327.304C182.154 327.23 182.459 326.999 182.718 326.796C182.976 326.592 183.281 326.361 183.392 326.287C183.503 326.213 184.492 325.465 185.592 324.624C186.691 323.783 187.69 323.034 187.791 322.96C187.902 322.886 188.207 322.655 188.466 322.452C188.725 322.249 189.03 322.017 189.15 321.944C189.335 321.823 189.612 321.611 190.213 321.149C190.591 320.862 191.46 320.225 191.848 319.957C192.07 319.809 193.743 318.191 195.582 316.371C198.558 313.423 198.937 313.071 199.121 313.145C199.232 313.182 199.62 313.589 199.972 314.051C201.33 315.798 202.994 317.665 204.722 319.411C206.062 320.761 206.496 321.167 207.855 322.359C208.206 322.664 208.557 322.979 208.64 323.062C208.908 323.33 211.755 325.585 212.734 326.296C213.686 326.999 215.803 328.468 216.117 328.644C216.2 328.69 216.514 328.893 216.81 329.078C218.122 329.938 218.418 330.132 218.649 330.261C218.788 330.335 219.213 330.585 219.601 330.816C219.989 331.047 220.442 331.306 220.599 331.398C220.765 331.481 221.19 331.731 221.542 331.934C221.902 332.137 222.355 332.387 222.558 332.489C222.761 332.599 223.261 332.858 223.667 333.08C224.074 333.302 224.721 333.635 225.1 333.819C225.479 334.004 225.857 334.189 225.931 334.245C226.005 334.291 226.172 334.374 226.301 334.42C226.43 334.476 226.597 334.559 226.671 334.605C226.745 334.66 226.874 334.725 226.948 334.753C227.244 334.882 228.131 335.28 228.75 335.575C229.11 335.742 229.711 336.019 230.09 336.176C231.088 336.601 231.578 336.823 231.864 336.971C231.994 337.045 232.16 337.1 232.234 337.1C232.299 337.1 232.484 337.165 232.632 337.248C232.789 337.331 233.288 337.535 233.741 337.71C234.203 337.886 234.655 338.071 234.757 338.117C234.933 338.2 235.154 338.283 236.125 338.625C236.337 338.699 236.624 338.828 236.763 338.902C236.892 338.976 237.077 339.041 237.16 339.041C237.252 339.041 237.493 339.124 237.705 339.217C238.075 339.392 238.602 339.577 239.424 339.827C239.655 339.901 240.053 340.03 240.302 340.113C240.81 340.289 241.513 340.529 242.012 340.705C242.187 340.76 242.797 340.954 243.352 341.13C243.916 341.305 244.498 341.499 244.646 341.546C244.803 341.601 245.135 341.703 245.385 341.767C246.586 342.1 247.446 342.359 248.527 342.71C248.786 342.793 249.22 342.913 249.497 342.978C250.181 343.135 250.727 343.283 251.392 343.477C251.697 343.57 252.131 343.68 252.362 343.708C252.593 343.745 252.852 343.819 252.945 343.865C253.037 343.911 253.388 344.013 253.73 344.078C254.479 344.235 255.384 344.457 256.013 344.632C256.272 344.706 256.641 344.789 256.845 344.817C257.048 344.845 257.528 344.947 257.907 345.048C259.451 345.427 260.273 345.612 260.449 345.603C260.56 345.603 260.892 345.667 261.188 345.751C261.493 345.825 262.057 345.945 262.436 346.019C263.323 346.176 264.441 346.398 265.208 346.573C265.541 346.647 266.123 346.749 266.511 346.795C266.899 346.85 267.315 346.934 267.445 346.98C267.565 347.026 268.055 347.109 268.535 347.165C269.016 347.229 269.459 347.322 269.533 347.377C269.626 347.46 270.975 347.507 274.154 347.553C276.631 347.59 280.734 347.673 283.276 347.747C289.31 347.904 304.855 347.913 306.703 347.756C307.442 347.691 309.189 347.599 310.585 347.544C311.98 347.488 313.228 347.405 313.357 347.359C313.486 347.312 314.254 347.229 315.067 347.174C315.88 347.118 316.878 347.017 317.285 346.943C317.691 346.878 318.357 346.795 318.763 346.758C319.17 346.73 319.752 346.647 320.057 346.573C320.362 346.508 320.908 346.425 321.259 346.388C321.619 346.351 322.118 346.277 322.368 346.203C322.626 346.139 323.042 346.056 323.292 346.028C323.809 345.963 325.769 345.52 327.22 345.15C327.451 345.085 327.931 344.965 328.292 344.873C328.652 344.78 328.994 344.679 329.059 344.642C329.123 344.595 329.391 344.512 329.65 344.448C330.685 344.18 332.894 343.366 334.382 342.692C335.075 342.377 337.284 341.268 337.709 341.019C337.912 340.899 338.189 340.742 338.328 340.658C339.483 340.002 341.581 338.468 342.977 337.248C344.437 335.982 346.756 333.403 347.736 331.962C348.771 330.437 349.381 329.494 349.63 329.014C349.714 328.856 349.88 328.57 350 328.367C350.12 328.163 350.453 327.516 350.739 326.934C351.026 326.352 351.303 325.807 351.349 325.733C351.396 325.659 351.46 325.529 351.488 325.455C351.516 325.382 351.636 325.104 351.765 324.846C351.885 324.587 351.987 324.309 351.987 324.245C351.987 324.171 352.024 324.069 352.079 324.014C352.274 323.82 353.383 320.298 353.512 319.494C353.54 319.291 353.623 318.94 353.697 318.709C353.761 318.478 353.845 318.043 353.882 317.738C353.919 317.434 354.002 316.971 354.066 316.722C354.131 316.463 354.224 315.927 354.251 315.52C354.288 315.114 354.371 314.467 354.436 314.088C354.51 313.709 354.612 312.683 354.667 311.824C354.723 310.955 354.815 309.938 354.87 309.559C354.944 309.07 354.981 269.135 355.009 172.429L355.037 36H292.656V160.664C292.656 265.531 292.637 285.337 292.526 285.429C292.434 285.503 292.258 285.484 291.824 285.346C291.51 285.244 291.131 285.161 291.002 285.161C290.863 285.161 290.503 285.096 290.207 285.013C289.902 284.939 289.116 284.81 288.46 284.745C287.804 284.671 287.24 284.579 287.213 284.532C287.185 284.486 286.288 284.422 285.216 284.385C284.154 284.357 282.462 284.283 281.474 284.237C280.485 284.181 277.647 284.098 275.171 284.052C272.112 283.987 270.43 283.913 269.903 283.83C269.487 283.756 268.803 283.664 268.397 283.636C267.99 283.599 267.315 283.497 266.909 283.396C266.493 283.303 266.049 283.22 265.929 283.22C265.8 283.22 265.458 283.137 265.162 283.035C264.866 282.934 264.534 282.85 264.432 282.85C264.321 282.841 264.072 282.776 263.868 282.703C263.665 282.629 263.314 282.508 263.083 282.435C262.408 282.231 261.669 281.954 261.373 281.797C261.225 281.714 261.031 281.649 260.957 281.649C260.874 281.649 260.772 281.612 260.726 281.566C260.671 281.52 260.116 281.252 259.478 280.965C258.841 280.679 257.926 280.244 257.445 279.995C255.939 279.209 255.283 278.867 254.932 278.655C254.747 278.553 254.312 278.294 253.961 278.1C253.619 277.897 253.139 277.601 252.908 277.435C252.677 277.278 252.362 277.074 252.215 276.991C252.067 276.908 251.836 276.769 251.706 276.677C251.152 276.316 250.375 275.78 250.329 275.734C250.302 275.706 249.997 275.475 249.645 275.226C249.303 274.967 248.943 274.699 248.86 274.625C248.777 274.551 248.204 274.071 247.603 273.572C246.217 272.426 243.685 269.893 242.64 268.618C241.716 267.481 240.404 265.744 240.247 265.457C240.191 265.346 240.099 265.208 240.053 265.161C239.923 264.995 238.962 263.516 238.749 263.128C238.639 262.934 238.435 262.583 238.306 262.343C237.807 261.474 236.374 258.572 236.374 258.443C236.374 258.369 236.328 258.258 236.273 258.202C236.162 258.091 235.774 257.204 235.626 256.742C235.58 256.585 235.506 256.382 235.45 256.28C235.358 256.086 235.155 255.541 234.923 254.848C234.85 254.617 234.729 254.302 234.665 254.154C234.6 253.997 234.517 253.729 234.48 253.554C234.443 253.378 234.378 253.184 234.332 253.129C234.286 253.082 234.193 252.777 234.119 252.472C234.055 252.158 233.962 251.853 233.925 251.798C233.814 251.622 233.278 249.57 232.964 248.138C232.872 247.731 232.77 247.352 232.742 247.297C232.705 247.251 232.641 246.9 232.585 246.521C232.521 246.142 232.419 245.624 232.354 245.375C232.28 245.116 232.197 244.682 232.169 244.404C232.132 244.127 232.049 243.665 231.985 243.388C231.92 243.11 231.837 242.611 231.8 242.279C231.763 241.946 231.68 241.41 231.615 241.077C231.541 240.744 231.439 239.996 231.384 239.414C231.328 238.831 231.245 238.184 231.199 237.981C231.153 237.778 231.07 237.001 231.014 236.262C230.959 235.514 230.876 234.663 230.829 234.368C230.774 234.063 230.691 232.991 230.645 231.974C230.589 230.957 230.506 229.747 230.46 229.294C230.349 228.305 230.229 224.312 230.081 216.956C230.007 213 230.007 209.84 230.081 205.172C230.136 201.661 230.192 196.319 230.201 193.297L230.229 187.798H167.94L167.876 193.574C167.755 205.172 167.589 223.416 167.534 232.159C167.478 239.922 167.45 241.17 167.321 241.493C167.247 241.696 167.145 242.149 167.108 242.51C167.071 242.861 166.998 243.249 166.951 243.388C166.896 243.517 166.803 243.905 166.739 244.266C166.591 245.051 166.36 246.003 166.129 246.807C166.027 247.14 165.953 247.473 165.953 247.556C165.953 247.63 165.87 247.962 165.768 248.295C165.667 248.619 165.5 249.155 165.399 249.487C165.297 249.82 165.158 250.291 165.075 250.55C164.992 250.8 164.872 251.197 164.798 251.428C164.585 252.103 164.29 252.934 164.142 253.249C164.077 253.406 164.012 253.591 164.012 253.665C164.003 253.729 163.929 253.951 163.828 254.154C163.726 254.358 163.652 254.589 163.643 254.663C163.643 254.746 163.587 254.885 163.513 254.986C163.449 255.088 163.356 255.273 163.319 255.402C163.282 255.531 163.144 255.864 163.024 256.141C162.894 256.419 162.709 256.835 162.608 257.066C161.868 258.72 160.27 261.705 159.392 263.073C159.244 263.304 159.068 263.581 159.004 263.692C158.865 263.923 157.904 265.309 157.608 265.707C154.983 269.246 151.047 273.109 147.932 275.198C147.498 275.494 146.971 275.854 146.749 276.011C146.537 276.159 146.333 276.289 146.306 276.289C146.278 276.289 146.148 276.363 146.01 276.464C145.511 276.806 144.845 277.213 144.476 277.407C144.272 277.509 143.93 277.703 143.727 277.814C143.117 278.174 140.188 279.607 139.384 279.948C139.236 280.013 138.866 280.17 138.58 280.3C138.293 280.438 138.007 280.54 137.951 280.54C137.886 280.54 137.711 280.605 137.554 280.679C137.23 280.817 136.676 281.03 136.01 281.252C135.779 281.326 135.511 281.427 135.41 281.473C135.308 281.52 135.022 281.621 134.763 281.695C134.227 281.843 133.497 282.074 133.099 282.222C132.951 282.277 132.582 282.37 132.277 282.444C131.981 282.508 131.621 282.61 131.482 282.666C131.251 282.758 130.909 282.85 129.68 283.128C129.43 283.183 128.904 283.313 128.525 283.405C128.146 283.497 127.628 283.608 127.369 283.636C127.12 283.664 126.723 283.747 126.492 283.821C126.26 283.886 125.826 283.969 125.521 284.006C125.216 284.043 124.726 284.126 124.44 284.2C124.144 284.274 123.497 284.357 123.007 284.385C122.508 284.412 121.982 284.495 121.825 284.56C121.677 284.625 121.178 284.708 120.716 284.745C120.263 284.782 119.449 284.865 118.913 284.939C118.377 285.013 117.194 285.115 116.28 285.161C115.365 285.216 114.219 285.3 113.738 285.364C113.193 285.429 111.4 285.475 109.025 285.475L105.19 285.484L105.143 36H42.7624V143.317Z" fill="#14B8A6"/>
<path d="M167.94 124.861H230.229L230.275 36H167.894L167.94 124.861Z" fill="#14B8A6"/>
<path d="M385.876 137.725C385.839 137.753 385.811 145.858 385.811 155.728C385.811 169.554 385.839 173.695 385.922 173.778C386.005 173.861 391.532 173.889 410.246 173.889C423.573 173.889 434.524 173.852 434.589 173.815C434.681 173.75 434.7 170.072 434.681 155.719L434.653 137.707L410.292 137.679C396.892 137.67 385.904 137.688 385.876 137.725Z" fill="#14B8A6"/>
<path d="M467.091 137.864C467.064 137.984 467.054 185.275 467.064 242.972L467.091 347.867H517.828L517.856 304.116C517.865 271.936 517.902 260.328 517.976 260.236C518.068 260.134 524.112 260.115 555.294 260.134L592.5 260.162L592.528 303.913C592.537 336.102 592.574 347.701 592.648 347.793C592.741 347.895 596.844 347.913 617.859 347.895L642.96 347.867V137.707L617.859 137.679C596.844 137.661 592.741 137.679 592.648 137.781C592.574 137.873 592.537 148.917 592.528 179.536L592.5 221.161H517.92L517.828 137.707L467.138 137.661L467.091 137.864Z" fill="#14B8A6"/>
<path d="M675.462 137.772C675.287 137.947 675.305 173.639 675.481 173.787C675.573 173.861 682.015 173.88 699.897 173.87L724.193 173.843V137.707L699.888 137.679C681.053 137.67 675.545 137.688 675.462 137.772Z" fill="#14B8A6"/>
<path d="M932.638 187.946C932.102 187.983 930.854 188.057 929.866 188.112C928.877 188.158 927.629 188.269 927.093 188.343C926.557 188.417 925.772 188.519 925.337 188.574C924.432 188.676 923.591 188.805 922.472 189.018C922.038 189.092 921.345 189.212 920.938 189.276C920.522 189.341 920.134 189.424 920.079 189.461C920.014 189.498 919.626 189.581 919.21 189.646C918.794 189.72 918.184 189.84 917.852 189.923C916.105 190.358 915.726 190.459 915.171 190.626C914.839 190.727 914.515 190.801 914.46 190.801C914.395 190.801 914.099 190.875 913.813 190.977C913.517 191.069 912.907 191.263 912.445 191.402C911.992 191.541 911.466 191.707 911.29 191.772C911.114 191.846 910.819 191.929 910.643 191.966C910.467 191.994 910.218 192.077 910.089 192.151C909.959 192.215 909.71 192.317 909.534 192.363C909.1 192.493 908.148 192.816 907.917 192.927C907.815 192.973 907.566 193.075 907.362 193.149C907.159 193.223 906.762 193.371 906.484 193.482C906.207 193.592 905.81 193.75 905.606 193.823C905.274 193.944 905.061 194.027 904.128 194.452C903.98 194.517 903.647 194.664 903.388 194.775C902.298 195.256 900.237 196.217 900.015 196.346C899.941 196.393 899.378 196.679 898.768 196.993C898.158 197.308 897.372 197.724 897.012 197.927C896.66 198.13 896.198 198.38 895.995 198.481C895.792 198.592 895.478 198.759 895.284 198.87C894.248 199.489 893.731 199.803 893.361 200.043C893.13 200.191 892.881 200.348 892.807 200.385C892.733 200.422 892.567 200.515 892.437 200.607C892.308 200.69 891.855 200.986 891.421 201.272C890.709 201.744 889.96 202.252 888.851 203.038C888.63 203.195 888.362 203.389 888.251 203.463C887.373 204.063 884.295 206.494 883.704 207.039C883.602 207.132 883.122 207.538 882.641 207.945C881.791 208.657 877.142 213.25 876.412 214.091C874.462 216.337 872.716 218.545 871.643 220.117C870.802 221.346 869.795 222.861 869.795 222.908C869.795 222.935 869.638 223.194 869.444 223.49C868.973 224.211 868.889 224.359 868.76 224.627C868.695 224.756 868.594 224.922 868.529 224.996C868.409 225.144 866.45 229.035 866.172 229.673C865.821 230.495 865.516 231.161 865.35 231.521C865.257 231.734 865.174 231.946 865.174 232.011C865.174 232.066 865.091 232.27 864.99 232.454C864.888 232.649 864.805 232.861 864.805 232.926C864.805 233 864.74 233.166 864.666 233.296C864.592 233.434 864.463 233.73 864.38 233.961C864.296 234.192 864.176 234.543 864.102 234.746C864.028 234.95 863.908 235.227 863.834 235.366C863.76 235.495 863.696 235.68 863.696 235.782C863.696 235.874 863.631 236.068 863.548 236.225C863.465 236.373 863.344 236.687 863.271 236.918C863.206 237.149 863.076 237.538 862.993 237.796C862.901 238.046 862.762 238.462 862.67 238.72C862.587 238.97 862.466 239.33 862.402 239.506C862.337 239.682 862.217 240.079 862.125 240.384C862.032 240.689 861.866 241.225 861.755 241.585C861.644 241.937 861.45 242.584 861.33 243.018C861.117 243.757 861.043 244.025 860.701 245.375C860.618 245.68 860.507 246.095 860.461 246.299C860.285 246.936 859.999 248.212 859.851 248.933C859.777 249.312 859.676 249.755 859.629 249.912C859.574 250.07 859.472 250.569 859.398 251.021C859.324 251.474 859.223 252.047 859.167 252.306C858.899 253.683 858.779 254.441 858.659 255.402C858.585 255.984 858.483 256.631 858.437 256.835C858.391 257.038 858.326 257.574 858.289 258.036C858.262 258.489 858.178 259.265 858.104 259.746C858.031 260.226 857.929 261.474 857.873 262.518C857.818 263.563 857.735 264.893 857.689 265.476C857.568 266.862 857.568 271.945 857.689 273.109C857.735 273.618 857.818 274.893 857.873 275.965C857.929 277.028 858.031 278.276 858.104 278.738C858.169 279.191 858.252 279.939 858.289 280.401C858.326 280.854 858.409 281.52 858.474 281.88C858.548 282.231 858.622 282.758 858.659 283.035C858.724 283.673 859.038 285.475 859.213 286.27C859.287 286.603 859.389 287.166 859.445 287.536C859.491 287.896 859.574 288.294 859.629 288.414C859.685 288.534 859.786 288.941 859.86 289.32C860.073 290.456 860.535 292.36 860.757 293.016C860.812 293.192 860.914 293.571 860.979 293.848C861.043 294.126 861.164 294.56 861.247 294.819C861.33 295.068 861.478 295.567 861.589 295.928C861.69 296.279 861.847 296.778 861.93 297.037C862.023 297.286 862.162 297.702 862.254 297.961C862.337 298.21 862.467 298.608 862.531 298.839C862.605 299.07 862.772 299.541 862.91 299.902C863.04 300.253 863.206 300.715 863.28 300.918C863.344 301.122 863.465 301.408 863.548 301.565C863.631 301.713 863.696 301.898 863.696 301.953C863.696 302.018 863.779 302.249 863.871 302.462C863.973 302.683 864.158 303.127 864.296 303.46C864.426 303.793 864.601 304.171 864.675 304.31C864.749 304.439 864.805 304.597 864.805 304.661C864.805 304.911 867.244 309.957 868.085 311.454C868.316 311.861 868.584 312.36 868.686 312.563C868.788 312.766 868.973 313.099 869.102 313.302C869.222 313.506 869.352 313.728 869.388 313.792C869.425 313.866 869.675 314.282 869.943 314.716C870.22 315.16 870.507 315.641 870.59 315.798C870.904 316.371 872.392 318.626 873.307 319.91C873.621 320.345 873.972 320.844 874.092 321.019C874.444 321.537 875.784 323.256 876.061 323.561C876.209 323.709 876.495 324.078 876.708 324.365C876.93 324.661 877.216 325.021 877.355 325.16C877.493 325.308 877.835 325.696 878.113 326.019C879.314 327.415 880.469 328.653 881.902 330.076C883.288 331.463 884 332.119 885.635 333.533C885.94 333.792 886.264 334.078 886.356 334.161C886.449 334.254 886.818 334.549 887.179 334.827C887.539 335.104 887.983 335.464 888.167 335.612C888.362 335.769 888.777 336.102 889.11 336.361C889.443 336.61 889.776 336.878 889.849 336.934C889.923 336.999 890.201 337.202 890.459 337.377C891.291 337.941 894.138 339.827 894.332 339.937C894.433 340.002 894.942 340.316 895.468 340.631C897.002 341.573 899.978 343.117 901.817 343.939C902.076 344.05 902.464 344.226 902.695 344.327C903.684 344.78 905.246 345.418 906.235 345.769C906.521 345.88 906.983 346.046 907.251 346.148C907.889 346.379 908.564 346.61 909.072 346.758C909.303 346.823 909.645 346.943 909.83 347.026C910.024 347.109 910.246 347.174 910.338 347.174C910.431 347.174 910.615 347.239 910.763 347.312C910.902 347.386 911.244 347.488 911.521 347.534C911.798 347.59 912.103 347.664 912.196 347.71C912.362 347.802 913.554 348.126 914.441 348.32C914.728 348.385 915.005 348.468 915.061 348.505C915.125 348.542 915.467 348.625 915.837 348.69C916.207 348.763 916.807 348.884 917.158 348.967C918.914 349.383 919.413 349.484 919.663 349.484C919.811 349.484 920.162 349.549 920.439 349.623C920.716 349.697 921.336 349.808 921.816 349.863C922.288 349.919 922.777 349.993 922.897 350.048C923.027 350.094 923.591 350.168 924.164 350.224C924.727 350.279 925.55 350.381 925.984 350.455C926.419 350.519 927.232 350.612 927.786 350.64C928.35 350.667 929.32 350.769 929.958 350.843C930.91 350.972 932.121 351 936.935 351C940.928 351 943.044 350.963 943.682 350.889C944.19 350.824 945.382 350.714 946.325 350.64C947.277 350.566 948.229 350.464 948.451 350.418C948.672 350.372 949.236 350.298 949.689 350.27C950.151 350.233 950.927 350.122 951.426 350.03C951.925 349.928 952.48 349.854 952.656 349.854C952.84 349.854 953.367 349.771 953.829 349.678C954.929 349.447 956.167 349.216 957.055 349.068C957.443 349.004 957.812 348.921 957.859 348.884C957.914 348.856 958.256 348.773 958.626 348.708C959.642 348.514 961.758 347.996 962.627 347.728C962.932 347.636 963.357 347.525 963.579 347.497C963.801 347.46 964.097 347.377 964.226 347.303C964.365 347.229 964.54 347.174 964.614 347.174C964.688 347.174 965.002 347.091 965.307 346.998C966.111 346.73 966.73 346.536 967.202 346.388C967.997 346.139 968.542 345.954 968.976 345.778C969.216 345.686 969.475 345.603 969.549 345.603C969.632 345.603 969.873 345.529 970.085 345.427C970.307 345.335 970.63 345.205 970.806 345.141C970.982 345.076 971.296 344.974 971.499 344.9C971.702 344.826 971.98 344.706 972.118 344.632C972.248 344.558 972.414 344.494 972.488 344.494C972.553 344.494 972.821 344.392 973.07 344.263C973.329 344.143 973.579 344.032 973.643 344.032C973.699 344.032 973.865 343.967 974.013 343.893C974.151 343.819 974.771 343.542 975.381 343.283C976.443 342.83 978.652 341.804 978.939 341.629C979.013 341.583 979.539 341.315 980.094 341.028C980.658 340.742 981.323 340.39 981.573 340.242C981.831 340.095 982.164 339.91 982.312 339.836C982.469 339.753 982.755 339.586 982.959 339.457C983.162 339.337 983.43 339.18 983.559 339.115C983.689 339.05 983.92 338.912 984.068 338.819C984.225 338.718 984.576 338.496 984.853 338.32C985.731 337.766 985.99 337.599 986.517 337.257C986.997 336.943 987.238 336.768 988.208 336.084C988.421 335.927 988.698 335.732 988.827 335.64C989.215 335.381 991.784 333.32 992.57 332.636C994.15 331.269 996.609 328.755 997.699 327.396C997.921 327.119 998.17 326.823 998.254 326.74C998.328 326.666 998.475 326.481 998.577 326.343C998.965 325.797 999.261 325.4 999.381 325.271C999.695 324.901 1000.66 323.395 1000.66 323.265C1000.66 323.182 1000.48 322.923 1000.27 322.692C999.843 322.23 999.815 322.202 998.411 320.557C996.96 318.875 996.553 318.404 996.405 318.247C996.331 318.164 996.036 317.831 995.758 317.507C995.481 317.175 995.093 316.722 994.88 316.491C994.492 316.047 994.141 315.631 992.699 313.949C992.228 313.386 991.803 312.914 991.775 312.887C991.738 312.859 991.424 312.498 991.082 312.092C990.232 311.084 988.587 309.171 987.672 308.127C987.265 307.665 986.748 307.064 986.517 306.796C986.018 306.195 985.463 305.558 984.715 304.717C984.419 304.375 984.058 303.968 983.929 303.802C983.8 303.645 983.365 303.136 982.959 302.674C982.552 302.203 982.007 301.574 981.748 301.279C981.489 300.983 981.009 300.428 980.685 300.05C980.362 299.671 979.974 299.218 979.817 299.024C979.669 298.839 979.382 298.525 979.197 298.321C979.003 298.127 978.846 297.915 978.846 297.85C978.846 297.795 978.809 297.637 978.754 297.499C978.68 297.295 978.634 297.277 978.486 297.36C978.384 297.406 978.246 297.508 978.181 297.573C978.116 297.647 977.562 298.109 976.952 298.608C976.342 299.107 975.51 299.809 975.103 300.179C974.697 300.539 973.994 301.149 973.532 301.528C973.079 301.898 972.636 302.277 972.562 302.351C972.488 302.425 971.961 302.859 971.407 303.321C970.852 303.774 970.325 304.218 970.252 304.292C970.104 304.439 967.47 306.417 967.017 306.713C966.888 306.805 966.62 306.99 966.416 307.138C966.213 307.277 965.806 307.535 965.511 307.711C965.215 307.887 964.836 308.118 964.67 308.219C963.819 308.728 962.073 309.624 961.102 310.049C960.871 310.151 960.566 310.29 960.409 310.354C960.261 310.419 959.966 310.539 959.762 310.613C959.559 310.687 959.106 310.853 958.746 310.992C958.395 311.121 957.886 311.288 957.628 311.352C957.378 311.417 957.119 311.5 957.055 311.537C956.934 311.611 955.825 311.925 955.049 312.092C954.744 312.166 954.227 312.286 953.894 312.36C952.498 312.702 951.593 312.887 951.389 312.887C951.269 312.887 950.752 312.97 950.243 313.062C949.735 313.164 948.783 313.293 948.118 313.349C947.462 313.413 946.602 313.496 946.223 313.543C945.299 313.635 941.094 313.635 940.17 313.533C939.763 313.487 938.821 313.395 938.063 313.312C937.314 313.238 936.427 313.118 936.076 313.034C935.734 312.96 935.207 312.859 934.902 312.803C933.941 312.646 931.732 312.101 931.252 311.907C931.076 311.842 930.744 311.741 930.513 311.676C930.282 311.62 930.06 311.546 930.004 311.5C929.958 311.463 929.764 311.399 929.588 311.362C929.413 311.325 929.117 311.214 928.941 311.121C928.766 311.02 928.572 310.946 928.507 310.946C928.405 310.946 928.184 310.853 927.139 310.391C925.873 309.818 923.951 308.839 923.258 308.404C921.983 307.609 920.384 306.491 919.423 305.724C917.482 304.181 915.098 301.667 913.878 299.902C913.711 299.643 913.545 299.421 913.508 299.393C913.462 299.347 913.286 299.079 912.658 298.1C912.27 297.508 911.604 296.307 911.475 295.974C911.429 295.844 911.336 295.678 911.29 295.604C911.234 295.53 911.17 295.401 911.142 295.327C911.114 295.253 910.994 294.976 910.874 294.726C910.098 293.007 909.479 291.196 909.118 289.643C909.054 289.338 908.933 288.821 908.859 288.488C908.73 287.933 908.628 287.351 908.416 285.993C908.37 285.715 908.36 285.41 908.388 285.318C908.434 285.17 910.819 285.161 956.722 285.161H1005V278.183C1005 274.043 1004.96 271.206 1004.92 271.206C1004.78 271.206 1004.73 270.642 1004.63 267.601C1004.57 266.002 1004.47 264.108 1004.4 263.396C1004.33 262.685 1004.25 261.557 1004.21 260.901C1004.19 260.236 1004.1 259.219 1004.03 258.637C1003.96 258.054 1003.87 257.176 1003.84 256.696C1003.81 256.215 1003.72 255.439 1003.66 254.986C1003.59 254.524 1003.48 253.655 1003.43 253.045C1003.37 252.435 1003.29 251.788 1003.24 251.613C1003.2 251.437 1003.11 250.846 1003.06 250.31C1003 249.774 1002.92 249.201 1002.87 249.034C1002.83 248.868 1002.75 248.314 1002.69 247.805C1002.63 247.297 1002.55 246.779 1002.5 246.659C1002.46 246.539 1002.38 246.077 1002.32 245.633C1002.26 245.181 1002.16 244.635 1002.1 244.404C1002.02 244.173 1001.94 243.757 1001.9 243.48C1001.88 243.203 1001.79 242.741 1001.72 242.463C1001.59 241.955 1001.4 241.077 1001.17 239.968C1001.11 239.635 1000.99 239.164 1000.9 238.924C1000.81 238.684 1000.75 238.379 1000.75 238.249C1000.75 238.129 1000.68 237.879 1000.61 237.695C1000.54 237.519 1000.43 237.122 1000.38 236.807C1000.31 236.493 1000.21 236.124 1000.14 235.976C1000.07 235.837 1000.01 235.634 1000.01 235.514C1000 235.393 999.936 235.135 999.862 234.931C999.779 234.728 999.677 234.377 999.631 234.146C999.575 233.915 999.455 233.517 999.363 233.268C999.076 232.473 998.984 232.177 998.845 231.687C998.771 231.419 998.651 231.087 998.577 230.948C998.503 230.8 998.438 230.606 998.438 230.514C998.438 230.421 998.392 230.255 998.328 230.144C998.207 229.913 997.856 228.97 997.644 228.305C997.57 228.065 997.468 227.843 997.422 227.815C997.366 227.787 997.33 227.686 997.33 227.603C997.33 227.519 997.228 227.233 997.098 226.983C996.978 226.725 996.867 226.466 996.867 226.401C996.867 226.336 996.793 226.124 996.692 225.939C996.599 225.754 996.461 225.449 996.378 225.274C995.842 224.026 994.354 221.013 993.808 220.08C993.614 219.747 993.448 219.451 993.448 219.423C993.448 219.405 993.217 219.017 992.94 218.564C992.662 218.111 992.367 217.612 992.284 217.464C992.126 217.187 991.359 216.013 990.518 214.784C990.278 214.424 989.825 213.814 989.52 213.416C989.215 213.019 988.901 212.603 988.827 212.492C987.811 210.986 984.447 207.363 982.312 205.45C981.757 204.951 981.147 204.415 980.972 204.258C980.648 203.971 979.41 202.964 978.846 202.539C978.68 202.409 978.467 202.243 978.375 202.169C978.283 202.095 978.051 201.929 977.876 201.799C977.691 201.67 977.423 201.476 977.294 201.374C976.841 201.014 973.579 198.814 973.07 198.528C972.922 198.435 972.645 198.278 972.46 198.167C970.436 196.956 966.795 195.043 964.799 194.147C964.568 194.045 964.143 193.851 963.856 193.722C963.57 193.592 963.274 193.482 963.209 193.482C963.145 193.482 962.969 193.398 962.812 193.297C962.664 193.195 962.47 193.112 962.396 193.112C962.322 193.112 962.1 193.029 961.906 192.927C961.722 192.825 961.509 192.742 961.444 192.742C961.38 192.742 961.186 192.668 961.01 192.567C960.834 192.474 960.539 192.363 960.363 192.326C960.187 192.289 959.993 192.215 959.929 192.169C959.864 192.123 959.614 192.021 959.374 191.957C958.884 191.818 958.247 191.605 957.544 191.356C957.295 191.263 956.768 191.097 956.389 190.986C956.01 190.875 955.446 190.709 955.141 190.617C954.836 190.524 954.439 190.413 954.263 190.385C954.088 190.349 953.755 190.265 953.524 190.201C952.803 189.979 951.648 189.702 951.094 189.6C950.798 189.554 950.511 189.489 950.465 189.452C950.419 189.424 950.049 189.341 949.661 189.276C949.273 189.212 948.598 189.092 948.164 189.018C946.427 188.685 945.382 188.546 942.388 188.214C941.039 188.066 936.399 187.844 934.949 187.853C934.209 187.862 933.174 187.899 932.638 187.946ZM937.351 226.567C938.497 226.66 940.031 226.946 940.891 227.224C941.177 227.325 941.492 227.399 941.584 227.399C941.667 227.408 941.907 227.482 942.111 227.584C942.314 227.686 942.536 227.76 942.61 227.769C942.73 227.769 943.026 227.889 943.959 228.333C944.162 228.425 944.43 228.545 944.56 228.601C944.689 228.647 944.856 228.73 944.93 228.776C945.003 228.832 945.355 229.026 945.697 229.22C946.048 229.414 946.427 229.636 946.538 229.71C946.658 229.784 946.916 229.959 947.111 230.089C948.21 230.828 950.179 232.621 951.075 233.721C951.278 233.961 951.51 234.238 951.583 234.321C951.75 234.506 951.842 234.636 952.526 235.634C953.201 236.632 954.014 238.083 954.365 238.905C954.522 239.257 954.698 239.672 954.772 239.829C955.095 240.569 955.65 242.029 955.65 242.158C955.65 242.223 955.751 242.593 955.872 242.99C956.389 244.691 956.629 245.929 957.008 248.84C957.128 249.746 957.175 250.716 957.175 252.398V254.709L932.878 254.737C913.813 254.746 908.554 254.727 908.444 254.644C908.333 254.552 908.323 254.358 908.37 253.554C908.407 253.018 908.49 252.204 908.564 251.752C908.628 251.289 908.712 250.633 908.749 250.273C908.786 249.922 908.85 249.543 908.896 249.423C908.943 249.302 909.017 248.923 909.072 248.582C909.127 248.24 909.229 247.777 909.303 247.546C909.377 247.315 909.497 246.9 909.571 246.622C909.83 245.643 910.273 244.312 910.514 243.785C910.578 243.628 910.643 243.471 910.643 243.434C910.643 243.295 911.743 241.022 912.214 240.199C912.362 239.94 912.51 239.672 912.547 239.598C912.584 239.525 912.685 239.358 912.769 239.229C912.861 239.099 913.129 238.684 913.379 238.305C915.061 235.708 918.166 232.602 920.763 230.902C921.992 230.098 922.223 229.959 922.703 229.71C922.907 229.608 923.304 229.405 923.581 229.257C924.062 229.007 924.579 228.758 925.531 228.333C925.762 228.222 926.003 228.139 926.058 228.139C926.123 228.139 926.326 228.055 926.511 227.954C926.705 227.852 926.945 227.769 927.047 227.769C927.149 227.769 927.417 227.686 927.638 227.584C927.86 227.482 928.119 227.399 928.211 227.399C928.304 227.399 928.627 227.316 928.914 227.224C929.21 227.122 929.662 227.02 929.912 226.983C930.171 226.946 930.586 226.863 930.836 226.798C931.816 226.521 935.346 226.401 937.351 226.567Z" fill="#14B8A6"/>
<path d="M834.076 189.563C832.856 189.628 831.572 189.729 831.211 189.785C830.86 189.84 830.102 189.942 829.548 190.016C828.984 190.09 828.42 190.182 828.3 190.228C828.171 190.275 827.838 190.349 827.561 190.376C827.284 190.413 826.849 190.506 826.591 190.57C826.341 190.644 825.86 190.764 825.528 190.838C824.844 190.995 823.79 191.282 823.31 191.448C821.979 191.91 820.768 192.345 820.399 192.511C818.717 193.232 816.961 194.138 816.046 194.738C815.787 194.914 815.547 195.053 815.51 195.053C815.436 195.053 814.373 195.783 813.56 196.393C812.442 197.234 811.573 198.001 810.371 199.211C808.255 201.319 808.422 201.106 805.889 204.849C805.021 206.124 804.485 206.91 804.18 207.344C803.69 208.037 803.348 208.537 802.867 209.257C802.553 209.729 802.267 210.117 802.23 210.117C801.98 210.117 801.823 209.294 801.684 207.298C801.629 206.531 801.546 205.681 801.5 205.404C801.444 205.126 801.361 204.294 801.315 203.555C801.259 202.816 801.158 201.781 801.084 201.245C801.019 200.709 800.927 199.84 800.899 199.304C800.862 198.768 800.788 197.936 800.714 197.456C800.649 196.975 800.566 196.115 800.529 195.561C800.492 194.997 800.428 194.249 800.381 193.897C800.326 193.537 800.252 192.899 800.206 192.474C800.16 192.021 800.076 191.661 800.002 191.624C799.938 191.578 789.643 191.541 777.139 191.541H754.386L754.33 191.744C754.256 192.021 754.256 347.581 754.33 347.765C754.386 347.904 756.613 347.913 778.719 347.913C799.494 347.913 803.061 347.895 803.154 347.784C803.237 347.682 803.255 338.44 803.228 309.449C803.191 275.633 803.172 271.049 803.043 269.496C802.96 268.516 802.849 265.356 802.784 262.38C802.618 254.478 802.803 250.689 803.45 248.563C803.542 248.23 803.625 247.916 803.625 247.861C803.625 247.482 805.335 244.792 806.176 243.859C807.192 242.741 808.643 241.364 809.318 240.892C809.946 240.449 811.083 239.709 811.203 239.663C811.277 239.626 811.508 239.497 811.712 239.367C811.915 239.238 812.229 239.072 812.405 238.989C812.58 238.915 813.07 238.684 813.486 238.48C813.893 238.286 814.281 238.12 814.336 238.12C814.392 238.12 814.595 238.037 814.78 237.935C814.974 237.833 815.214 237.75 815.316 237.75C815.417 237.75 815.584 237.695 815.685 237.621C815.787 237.556 816.055 237.454 816.286 237.399C816.517 237.343 816.887 237.242 817.118 237.168C817.515 237.038 817.691 236.992 818.689 236.752C819.779 236.484 820.815 236.281 821.323 236.225C821.628 236.197 822.173 236.114 822.524 236.04C822.885 235.976 823.55 235.892 824.003 235.855C824.465 235.828 825.398 235.726 826.082 235.643C827.847 235.421 839.723 235.43 843.318 235.652C845.665 235.8 848.512 235.874 848.595 235.782C848.623 235.754 848.678 233.249 848.733 230.209C848.78 227.177 848.854 224.645 848.9 224.59C848.946 224.534 849.001 220.56 849.038 215.754C849.066 210.949 849.159 204.646 849.232 201.753C849.334 197.529 849.417 191.125 849.38 190.552C849.371 190.487 849.214 190.413 849.029 190.385C848.835 190.349 848.392 190.265 848.031 190.201C847.68 190.136 846.987 190.053 846.506 190.016C846.026 189.988 845.277 189.896 844.843 189.831C843.983 189.692 838.632 189.406 837.2 189.424C836.701 189.434 835.296 189.498 834.076 189.563Z" fill="#14B8A6"/>
<path d="M386.283 191.67C386.209 191.763 386.19 212.15 386.2 269.829L386.227 347.867H435.023V191.587L410.708 191.559C390.34 191.541 386.375 191.559 386.283 191.67Z" fill="#14B8A6"/>
<path d="M675.462 191.652C675.379 191.735 675.351 209.137 675.351 269.718C675.351 312.6 675.388 347.738 675.425 347.802C675.49 347.895 680.434 347.913 699.851 347.895L724.193 347.867V191.587L699.888 191.559C681.053 191.55 675.545 191.568 675.462 191.652Z" fill="#14B8A6"/>
</svg>
